<?xml version="1.0" encoding="UTF-8"?>
<svg id="Layer_1" xmlns="http://www.w3.org/2000/svg" baseProfile="tiny" version="1.2" xmlns:xlink="http://www.w3.org/1999/xlink" viewBox="0 0 800 800">
  <!-- Generator: Adobe Illustrator 29.5.1, SVG Export Plug-In . SVG Version: 2.1.0 Build 141)  -->
  <defs>
    <linearGradient id="linear-gradient" x1="204.8" y1="400.7" x2="400" y2="400.7" gradientUnits="userSpaceOnUse">
      <stop offset="0" stop-color="#245a98"/>
      <stop offset="1" stop-color="#3a8ae5"/>
    </linearGradient>
    <linearGradient id="linear-gradient1" x1="236.2" y1="400" x2="595.2" y2="400" xlink:href="#linear-gradient"/>
    <linearGradient id="linear-gradient2" x1="400" y1="325.5" x2="563.8" y2="325.5" xlink:href="#linear-gradient"/>
  </defs>
  <path d="M400,489.4v180.3h-31.4v-151.5c-92.8-15.1-163.8-95.7-163.8-192.7v-193.8h31.4v193.8c0,90.4,73.4,163.8,163.8,163.8Z" fill="url(#linear-gradient)"/>
  <path d="M595.2,325.5c0,97-71,177.6-163.9,192.7v151.5h-31.4v-180.3c90.5,0,163.9-73.4,163.9-163.8s-73.4-163.9-163.9-163.9v327.7c-90.4,0-163.8-73.4-163.8-163.8v-193.8h31.4v193.8c0,62.3,43.1,114.6,101.1,128.7V130.3h31.4c107.6,0,195.2,87.6,195.2,195.2Z" fill="url(#linear-gradient1)"/>
  <path d="M400,161.7v327.7c90.5,0,163.9-73.4,163.9-163.8s-73.4-163.9-163.9-163.9ZM431.3,454.2V196.8c58,14.1,101.1,66.5,101.1,128.7s-43.1,114.6-101.1,128.7Z" fill="url(#linear-gradient2)"/>
</svg>